HIERARCHY
ROOT Hips
{
  OFFSET 0.000000 0.000000 0.000000
  CHANNELS 6 Xposition Yposition Zposition Xrotation Yrotation Zrotation
  JOINT Spine
  {
    OFFSET 0.762862 23.197727 -6.058858
    CHANNELS 3 Xrotation Yrotation Zrotation
    JOINT Chest
    {
      OFFSET 0.762862 23.197727 -6.058858
      CHANNELS 3 Xrotation Yrotation Zrotation
      JOINT Neck
      {
        OFFSET -0.270074 9.229822 -3.797407
        CHANNELS 3 Xrotation Yrotation Zrotation
        JOINT Head
        {
          OFFSET 0.225285 8.430608 -7.939136
          CHANNELS 3 Xrotation Yrotation Zrotation
          End Site
          {
            OFFSET 0.067585 2.529182 -2.381741
          }
        }
      }
      JOINT LeftShoulder
      {
        OFFSET 17.595006 0.044015 0.996102
        CHANNELS 3 Xrotation Yrotation Zrotation
        JOINT LeftArm
        {
          OFFSET 3.473531 -23.049457 3.982832
          CHANNELS 3 Xrotation Yrotation Zrotation
          JOINT LeftForeArm
          {
            OFFSET 3.218371 -22.980839 -10.241008
            CHANNELS 3 Xrotation Yrotation Zrotation
            JOINT LeftHand
            {
              OFFSET -0.008887 -5.924601 -2.989147
              CHANNELS 3 Xrotation Yrotation Zrotation
              End Site
              {
                OFFSET -0.002666 -1.777380 -0.896744
              }
            }
          }
        }
      }
      JOINT RightShoulder
      {
        OFFSET -17.595006 -0.044015 -0.996102
        CHANNELS 3 Xrotation Yrotation Zrotation
        JOINT RightArm
        {
          OFFSET -5.553442 -24.118242 6.751946
          CHANNELS 3 Xrotation Yrotation Zrotation
          JOINT RightForeArm
          {
            OFFSET -3.099014 -24.977112 -8.059516
            CHANNELS 3 Xrotation Yrotation Zrotation
            JOINT RightHand
            {
              OFFSET 0.298828 -5.701374 -2.573080
              CHANNELS 3 Xrotation Yrotation Zrotation
              End Site
              {
                OFFSET 0.089648 -1.710412 -0.771924
              }
            }
          }
        }
      }
    }
  }
  JOINT LeftUpLeg
  {
    OFFSET 11.990773 -0.614304 0.788698
    CHANNELS 3 Xrotation Yrotation Zrotation
    JOINT LeftLeg
    {
      OFFSET -5.144974 -41.347031 -0.530598
      CHANNELS 3 Xrotation Yrotation Zrotation
      JOINT LeftFoot
      {
        OFFSET 2.709190 -35.138144 18.775504
        CHANNELS 3 Xrotation Yrotation Zrotation
        End Site
        {
          OFFSET 0.812757 -10.541443 5.632651
        }
      }
    }
  }
  JOINT RightUpLeg
  {
    OFFSET -11.990773 0.614304 -0.788698
    CHANNELS 3 Xrotation Yrotation Zrotation
    JOINT RightLeg
    {
      OFFSET 0.284998 -37.357294 5.081156
      CHANNELS 3 Xrotation Yrotation Zrotation
      JOINT RightFoot
      {
        OFFSET 4.690763 -28.563407 28.545631
        CHANNELS 3 Xrotation Yrotation Zrotation
        End Site
        {
          OFFSET 1.407229 -8.569022 8.563689
        }
      }
    }
  }
}
MOTION
Frames: 10
Frame Time: 0.083333
0.000000 60.000000 0.000000 0.285476 0.021387 0.120223 0.285476 0.021387 0.120223 0.000000 0.000000 0.000000 1.019628 0.180996 0.228659 5.000000 0.000000 0.000000 0.231044 0.129908 0.565117 -0.461196 0.045205 -0.251217 -0.245659 0.912971 -1.827886 0.000000 0.000000 0.000000 0.725345 -0.131334 0.132051 -0.370535 0.047125 -0.003949 -0.137335 0.004451 -0.025961 0.000000 0.000000 0.000000 -2.466583 0.302253 -0.151881 1.038821 0.090555 0.021952 0.000000 0.000000 0.000000 -0.956645 0.113359 0.788435 8.380182 0.230807 -1.316804 0.000000 0.000000 0.000000
-0.996446 60.000000 -0.276369 0.358990 0.013591 0.100002 0.358990 0.013591 0.100002 0.000000 0.000000 0.000000 0.950964 0.159993 0.204334 5.000000 0.000000 0.000000 0.248185 0.132174 0.569899 -0.287922 0.076098 -0.263568 -0.129482 0.862806 -1.717590 0.000000 0.000000 0.000000 0.742418 -0.128463 0.160802 -0.294997 0.047991 -0.036078 -0.096146 0.024598 -0.065767 0.000000 0.000000 0.000000 -2.388325 0.291020 -0.152708 1.014258 0.076065 -0.003059 0.000000 0.000000 0.000000 -0.626817 0.123468 0.885285 8.064399 0.242027 -1.282914 0.000000 0.000000 0.000000
-2.629133 60.000000 -0.666327 1.211854 0.017409 0.228120 1.211854 0.017409 0.228120 0.000000 0.000000 0.000000 2.499763 0.404566 0.522047 5.000000 0.000000 0.000000 0.733054 0.398497 1.751557 -0.310201 0.341736 -0.860803 0.025618 2.368028 -4.670888 0.000000 0.000000 0.000000 2.173488 -0.362645 0.530548 -0.614120 0.136889 -0.191193 -0.180203 0.121985 -0.291636 0.000000 0.000000 0.000000 -6.527909 0.789594 -0.450801 2.857660 0.164326 -0.109203 0.000000 0.000000 0.000000 -0.816037 0.377135 2.788237 21.979007 0.709573 -3.560387 0.000000 0.000000 0.000000
-3.449131 60.000000 -0.866614 2.135311 -0.017053 0.219008 2.135311 -0.017053 0.219008 0.000000 0.000000 0.000000 3.183041 0.500609 0.655285 5.000000 0.000000 0.000000 1.141137 0.665836 3.059717 0.873996 0.983670 -1.859351 1.161915 3.597835 -6.909260 0.000000 0.000000 0.000000 3.342956 -0.540174 0.902761 -0.382693 0.185933 -0.434542 -0.116535 0.273179 -0.620353 0.000000 0.000000 0.000000 -8.811356 1.048333 -0.744669 4.240912 0.087180 -0.483966 0.000000 0.000000 0.000000 0.975966 0.585998 4.552332 29.619947 1.048523 -4.978998 0.000000 0.000000 0.000000
-3.837260 60.000000 -1.177071 2.507267 -0.022733 0.249676 2.507267 -0.022733 0.249676 0.000000 0.000000 0.000000 3.510999 0.622944 0.807314 5.000000 0.000000 0.000000 1.607621 0.930699 4.422376 2.581898 2.231191 -3.808267 2.835554 5.539160 -10.201084 0.000000 0.000000 0.000000 4.006820 -0.679966 0.971611 -0.105900 0.130557 -0.367056 -0.268739 0.282924 -0.662015 0.000000 0.000000 0.000000 -9.197939 1.072947 -1.050063 5.204483 -0.101385 -1.038964 0.000000 0.000000 0.000000 2.001340 0.600876 4.962528 31.239513 1.059569 -5.435954 0.000000 0.000000 0.000000
-4.167594 60.000000 -1.668055 3.473210 -0.038643 0.328100 3.473210 -0.038643 0.328100 0.000000 0.000000 0.000000 4.285942 0.773938 1.015177 5.000000 0.000000 0.000000 3.098510 1.248097 5.552331 6.148086 4.391038 -6.678845 5.343354 8.496439 -14.939315 0.000000 0.000000 0.000000 4.741390 -0.807436 1.164524 0.439653 -0.025535 -0.092872 -0.312231 0.310527 -0.728873 0.000000 0.000000 0.000000 -9.320336 1.068162 -1.334280 5.630213 -0.343248 -1.618153 0.000000 0.000000 0.000000 3.095067 0.616637 5.484932 31.535013 0.999666 -5.628736 0.000000 0.000000 0.000000
-4.495794 60.000000 -2.224066 4.592905 -0.030038 0.546515 4.592905 -0.030038 0.546515 0.000000 0.000000 0.000000 5.221383 1.069164 1.400421 5.000000 0.000000 0.000000 4.869179 1.638897 7.166615 9.801783 6.441206 -8.892498 7.270932 10.420092 -17.680207 0.000000 0.000000 0.000000 4.969891 -0.770209 1.550391 1.090210 -0.250043 0.343654 -0.487639 0.255561 -0.627483 0.000000 0.000000 0.000000 -8.578731 0.981545 -1.375804 4.673614 -0.526640 -1.818269 0.000000 0.000000 0.000000 3.756943 0.701172 6.556150 29.766097 0.772879 -5.481010 0.000000 0.000000 0.000000
-4.781167 60.000000 -2.617939 4.599382 0.094154 1.111603 4.599382 0.094154 1.111603 0.000000 0.000000 0.000000 5.400903 1.430673 1.830048 5.000000 0.000000 0.000000 5.841972 1.812719 7.942827 11.800211 7.770932 -10.281760 7.371170 10.915834 -18.475117 0.000000 0.000000 0.000000 4.520959 -0.520875 2.143641 1.006199 -0.441161 0.947780 -0.855377 0.039443 -0.189936 0.000000 0.000000 0.000000 -8.442744 0.965230 -1.391169 4.312697 -0.558632 -1.812869 0.000000 0.000000 0.000000 4.195101 0.760518 7.369851 29.435101 0.864306 -5.212971 0.000000 0.000000 0.000000
-5.130251 60.000000 -2.787535 4.371429 0.271932 1.873280 4.371429 0.271932 1.873280 0.000000 0.000000 0.000000 5.157525 1.737561 2.172741 5.000000 0.000000 0.000000 7.142035 1.902666 7.839071 11.894147 8.155523 -10.872044 6.471557 10.089388 -17.368853 0.000000 0.000000 0.000000 4.080748 -0.254356 2.799204 1.091438 -0.640734 1.512588 -1.070681 -0.016671 -0.088853 0.000000 0.000000 0.000000 -8.655812 0.993656 -1.317031 6.333516 -0.338629 -1.743957 0.000000 0.000000 0.000000 4.485285 0.775717 7.691218 30.965808 1.566252 -4.466092 0.000000 0.000000 0.000000
-5.192196 60.000000 -2.319622 4.167607 0.407871 2.439359 4.167607 0.407871 2.439359 0.000000 0.000000 0.000000 5.065063 1.704907 2.128532 5.000000 0.000000 0.000000 6.564726 1.727766 6.723256 9.944246 6.745244 -9.349103 4.962512 8.309495 -14.748249 0.000000 0.000000 0.000000 3.953942 -0.121416 3.213607 0.765831 -0.736253 1.942032 -1.361818 -0.101132 0.071219 0.000000 0.000000 0.000000 -8.200432 0.964675 -0.889066 8.183407 -0.072365 -1.536606 0.000000 0.000000 0.000000 4.243011 0.795272 7.739648 29.547301 1.708059 -3.826487 0.000000 0.000000 0.000000
